<svg width="89" height="36" viewBox="0 0 89 36" fill="none" xmlns="http://www.w3.org/2000/svg">
<g clip-path="url(#clip0_2_20)">
<rect width="89.0001" height="36.0003" fill="white"/>
<path d="M79.678 27.5242C79.678 27.5242 80.967 28.1648 81.603 28.4367C82.221 28.7007 82.291 29.6903 81.611 30.0245C80.93 30.3588 80.742 30.4131 80.742 30.4131C80.742 30.4131 80.849 30.1359 80.835 29.868C80.791 29.3905 79.385 29.0031 78.453 28.7737C78.453 28.7737 77.738 26.5214 77.414 25.894C77.089 25.2626 76.43 25 76.43 25L77.988 25.0212C77.988 25.0212 78.524 24.9946 78.762 25.5716C78.999 26.1513 79.678 27.5242 79.678 27.5242Z" fill="url(#paint0_linear_2_20)"/>
<path d="M79.588 32.4583C79.588 32.4583 78.956 33.737 78.678 34.3909C78.414 35.0117 77.409 35.082 77.076 34.3989C76.743 33.7157 76.709 33.595 76.709 33.595C76.709 33.595 76.91 33.6348 77.23 33.6202C77.706 33.5765 78.114 32.1651 78.343 31.23C78.343 31.23 80.585 30.5111 81.212 30.1874C81.841 29.8611 82.101 29.1992 82.101 29.1992L82.08 30.9966C82.08 30.9966 82.107 31.303 81.532 31.5417C80.955 31.7778 79.588 32.4583 79.588 32.4583Z" fill="url(#paint1_linear_2_20)"/>
<path d="M74.628 32.3683C74.628 32.3683 73.346 31.7315 72.703 31.4556C72.084 31.1917 72.014 30.2009 72.695 29.8679C73.375 29.5337 73.649 29.4727 73.649 29.4727C73.649 29.4727 73.472 29.7565 73.515 30.0762C73.56 30.555 74.922 30.8892 75.851 31.1187C75.851 31.1187 76.593 33.3577 76.89 33.9984C77.252 34.7783 77.852 34.8978 77.852 34.8978L76.085 34.8712C76.085 34.8712 75.779 34.8977 75.541 34.3207C75.306 33.7411 74.628 32.3683 74.628 32.3683Z" fill="url(#paint2_linear_2_20)"/>
<path d="M74.734 27.4255C74.734 27.4255 75.368 26.1402 75.643 25.4929C75.906 24.8721 76.892 24.8031 77.225 25.4849C77.558 26.168 77.59 26.2914 77.59 26.2914C77.59 26.2914 77.339 26.2953 77.073 26.3099C76.596 26.355 76.208 27.7213 75.98 28.6551C75.98 28.6551 73.744 29.3886 73.111 29.6976C72.24 30.1221 72.207 30.666 72.207 30.666L72.243 28.8898C72.243 28.8898 72.216 28.5835 72.791 28.3447C73.366 28.1059 74.734 27.4255 74.734 27.4255Z" fill="url(#paint3_linear_2_20)"/>
<path d="M5.8872 33.6454H0L1.2929 25.4841H7.1801L6.9377 27.0656H2.9205L2.655 28.774H6.1297L5.8872 30.2862H2.4126L2.1356 32.0639H6.1412L5.8872 33.6454Z" fill="#9E9E9E"/>
<path d="M12.7741 33.6454H10.7424L9.91123 31.9254L8.45673 33.6454H6.54053L9.12633 30.6094L7.57943 27.5619H9.62273L10.4307 29.3512L11.9083 27.5619H13.7668L11.181 30.5748L12.7741 33.6454Z" fill="#9E9E9E"/>
<path d="M18.0739 27.4349C18.6819 27.4349 19.1513 27.6581 19.4822 28.1045C19.8131 28.5508 19.9786 29.1319 19.9786 29.8476C19.9786 30.317 19.9132 30.7711 19.7824 31.2097C19.6592 31.6407 19.463 32.0562 19.1936 32.4564C18.9243 32.8566 18.5395 33.1798 18.0393 33.4261C17.539 33.6647 16.9542 33.7839 16.2846 33.7839C16.023 33.7839 15.6959 33.757 15.3034 33.7031L15.2342 34.3842L14.9687 36.0003H13.1794L14.5185 27.5619H15.9268L15.8806 28.8548C16.4501 27.9082 17.1812 27.4349 18.0739 27.4349ZM17.4967 28.9818C17.2582 28.9818 16.9811 29.1357 16.6656 29.4435C16.3577 29.7514 16.0807 30.1131 15.8344 30.5286L15.5805 32.1563C15.8498 32.2409 16.1577 32.2833 16.504 32.2833C17.0581 32.2833 17.4698 32.0639 17.7391 31.6253C18.0162 31.1789 18.1547 30.6864 18.1547 30.1477C18.1547 29.8091 18.097 29.532 17.9816 29.3166C17.8661 29.0934 17.7045 28.9818 17.4967 28.9818Z" fill="#9E9E9E"/>
<path d="M23.7202 32.1563L23.5817 33.5184C23.1584 33.6877 22.7236 33.7724 22.2773 33.7724C21.7771 33.7724 21.3923 33.657 21.1229 33.4261C20.8613 33.1952 20.7304 32.8643 20.7304 32.4333C20.7304 32.3179 20.742 32.1909 20.7651 32.0524L21.8386 25.207H23.6394L22.6351 31.6022C22.6274 31.6945 22.6236 31.76 22.6236 31.7984C22.6236 31.9831 22.6544 32.1063 22.7159 32.1678C22.7852 32.2294 22.9199 32.2602 23.12 32.2602C23.2816 32.2602 23.4817 32.2255 23.7202 32.1563Z" fill="#9E9E9E"/>
<path d="M27.1317 33.7608C26.3006 33.7455 25.6541 33.5223 25.1924 33.0913C24.7306 32.6604 24.4998 32.0562 24.4998 31.279C24.4998 30.14 24.823 29.2165 25.4694 28.5085C26.1236 27.7928 26.9932 27.4349 28.0783 27.4349C28.9402 27.4349 29.6059 27.6504 30.0753 28.0814C30.5525 28.5047 30.791 29.1126 30.791 29.9053C30.791 31.0827 30.4678 32.0216 29.8214 32.7219C29.1749 33.4145 28.2784 33.7608 27.1317 33.7608ZM27.3279 32.2602C27.8359 32.2602 28.2399 32.0716 28.54 31.6945C28.8402 31.3098 28.9902 30.7864 28.9902 30.1246C28.9902 29.3243 28.6478 28.9241 27.9628 28.9241C27.4626 28.9241 27.0586 29.1126 26.7508 29.4897C26.4429 29.8668 26.289 30.394 26.289 31.0712C26.289 31.4791 26.3737 31.7792 26.543 31.9716C26.72 32.1563 26.9816 32.2525 27.3279 32.2602Z" fill="#9E9E9E"/>
<path d="M31.345 33.6454L32.303 27.5619H33.723L33.654 29.028C34.277 27.966 35.054 27.4349 35.986 27.4349H36.089L35.743 29.2704C35.351 29.2704 34.962 29.3935 34.577 29.6398C34.192 29.8783 33.877 30.1708 33.631 30.5171L33.146 33.6454H31.345Z" fill="#9E9E9E"/>
<path d="M42.056 29.2704C41.994 30.6864 40.936 31.3944 38.881 31.3944C38.589 31.3944 38.304 31.3829 38.027 31.3598C38.065 31.7138 38.189 31.9677 38.396 32.1217C38.612 32.2756 38.977 32.3525 39.493 32.3525C40.101 32.3525 40.728 32.2409 41.375 32.0178L41.098 33.4838C40.451 33.6839 39.758 33.7839 39.02 33.7839C37.988 33.7839 37.253 33.5646 36.815 33.126C36.384 32.6873 36.168 32.0524 36.168 31.2213C36.168 30.1592 36.484 29.2665 37.115 28.5431C37.754 27.8197 38.612 27.458 39.689 27.458C40.497 27.458 41.094 27.6235 41.478 27.9544C41.863 28.2776 42.056 28.7163 42.056 29.2704ZM38.119 30.2285C38.196 30.2439 38.319 30.2516 38.489 30.2516C39.666 30.2516 40.255 29.9784 40.255 29.432C40.255 29.255 40.197 29.1126 40.082 29.0049C39.966 28.8894 39.793 28.8317 39.562 28.8317C39.193 28.8317 38.885 28.9549 38.639 29.2011C38.4 29.4474 38.227 29.7898 38.119 30.2285Z" fill="#9E9E9E"/>
<path d="M47.123 33.6454H45.242L46.535 25.4841H49.882C50.906 25.4841 51.625 25.6726 52.041 26.0497C52.464 26.4268 52.676 26.9578 52.676 27.6427C52.676 27.989 52.645 28.3123 52.584 28.6124C52.522 28.9048 52.407 29.205 52.237 29.5128C52.076 29.8129 51.86 30.0707 51.591 30.2862C51.329 30.494 50.979 30.6672 50.54 30.8057C50.102 30.9365 49.594 31.0019 49.017 31.0019H47.551L47.123 33.6454ZM47.781 29.5128H49.086C50.179 29.5128 50.725 28.9933 50.725 27.9544C50.725 27.6312 50.633 27.3888 50.448 27.2272C50.263 27.0579 49.944 26.9732 49.49 26.9732H48.185L47.781 29.5128Z" fill="#FFC200"/>
<path d="M55.907 32.1563L55.769 33.5184C55.345 33.6877 54.91 33.7724 54.464 33.7724C53.964 33.7724 53.579 33.657 53.31 33.4261C53.048 33.1952 52.917 32.8643 52.917 32.4333C52.917 32.3179 52.929 32.1909 52.952 32.0524L54.025 25.207H55.826L54.822 31.6022C54.814 31.6945 54.81 31.76 54.81 31.7984C54.81 31.9831 54.841 32.1063 54.903 32.1678C54.972 32.2294 55.107 32.2602 55.307 32.2602C55.468 32.2602 55.668 32.2255 55.907 32.1563Z" fill="#FFC200"/>
<path d="M63.104 27.5619L62.134 33.6454H60.726L60.772 32.3525C60.133 33.2991 59.314 33.7724 58.313 33.7724C57.775 33.7724 57.371 33.6223 57.101 33.3222C56.832 33.0221 56.697 32.6219 56.697 32.1217C56.697 31.9139 56.713 31.7292 56.743 31.5676L57.39 27.5619H59.179L58.614 31.1174C58.59 31.2328 58.579 31.3559 58.579 31.4868C58.579 31.9408 58.741 32.1678 59.064 32.1678C59.318 32.1678 59.602 32.0255 59.918 31.7407C60.234 31.456 60.53 31.0981 60.807 30.6672L61.303 27.5619H63.104Z" fill="#FFC200"/>
<path d="M63.36 33.4723L63.672 31.9716C63.726 32.0332 63.968 32.1101 64.399 32.2025C64.83 32.2871 65.234 32.3294 65.611 32.3294C66.389 32.3294 66.777 32.137 66.777 31.7523C66.777 31.6137 66.677 31.5021 66.477 31.4175C66.285 31.3328 66.046 31.2636 65.761 31.2097C65.484 31.1481 65.203 31.0712 64.919 30.9788C64.642 30.8788 64.403 30.7133 64.203 30.4825C64.011 30.2439 63.914 29.9438 63.914 29.5821C63.914 28.8894 64.165 28.3584 64.665 27.989C65.165 27.6196 65.919 27.4349 66.927 27.4349C67.258 27.4349 67.581 27.458 67.897 27.5042C68.212 27.5427 68.451 27.585 68.613 27.6312C68.782 27.6774 68.89 27.7158 68.936 27.7466L68.636 29.2011C68.505 29.1165 68.266 29.0434 67.92 28.9818C67.574 28.9202 67.239 28.8894 66.916 28.8894C66.115 28.8894 65.715 29.0741 65.715 29.4435C65.715 29.5744 65.811 29.6783 66.004 29.7552C66.204 29.8322 66.442 29.9014 66.719 29.963C66.997 30.0169 67.274 30.0938 67.551 30.1939C67.835 30.2862 68.074 30.4517 68.266 30.6902C68.466 30.9211 68.566 31.2174 68.566 31.5791C68.566 32.3256 68.297 32.8758 67.758 33.2298C67.227 33.5838 66.496 33.7608 65.565 33.7608C65.211 33.7608 64.853 33.7378 64.492 33.6916C64.13 33.6454 63.857 33.6031 63.672 33.5646C63.495 33.5184 63.391 33.4876 63.36 33.4723Z" fill="#FFC200"/>
<path d="M14.7564 2.78263L15.0013 1.18827C15.043 0.93813 14.97 0.68796 14.8033 0.49515C14.6417 0.30234 14.402 0.19287 14.1467 0.19287H4.46451C4.03721 0.19287 3.67771 0.50027 3.60991 0.92237L1.00961 17.3632C0.973109 17.6133 1.04091 17.8688 1.20761 18.0616C1.36921 18.2544 1.60891 18.369 1.85901 18.369H4.09451C4.52191 18.369 4.87621 18.0616 4.94921 17.6395L5.95491 11.261H11.4943C11.9164 11.261 12.2759 10.9536 12.3437 10.5315L12.573 9.1402C12.6094 8.8901 12.5417 8.6348 12.3749 8.442C12.2082 8.244 11.9685 8.1344 11.7131 8.1344H6.48641L7.16911 3.51747H13.8966C14.3343 3.51226 14.6939 3.20993 14.7564 2.78263ZM65.507 8.27L65.439 8.2438C64.84 8.0614 64.142 7.96265 63.376 7.96265C62.13 7.96265 61.182 8.4679 60.562 9.4685C59.957 10.4534 59.644 11.5635 59.644 12.762C59.644 13.5176 59.775 14.1532 60.035 14.6482C60.306 15.1589 60.692 15.4248 61.182 15.4248C61.729 15.4248 62.359 15.0703 63.063 14.3772C63.751 13.6998 64.381 12.8871 64.923 11.9699L65.507 8.27ZM69.572 6.37847L67.795 17.655C67.727 18.0823 67.367 18.3848 66.94 18.3848H65.622C65.387 18.3848 65.163 18.2908 65.001 18.1189C64.84 17.9521 64.751 17.7229 64.762 17.4884L64.814 16.0917L64.658 16.2637C64.652 16.2689 64.147 16.8317 63.563 17.2851C62.693 17.9625 61.729 18.3273 61.625 18.369C61.088 18.567 60.51 18.6659 59.905 18.6659C58.576 18.6659 57.586 18.1917 56.862 17.2225C56.143 16.2584 55.783 14.9767 55.783 13.4238C55.783 12.6161 55.866 11.8188 56.023 11.058C56.184 10.2972 56.466 9.5259 56.867 8.7598C57.268 7.99901 57.774 7.32153 58.368 6.75352C58.957 6.18551 59.738 5.72165 60.681 5.36729C61.625 5.01815 62.703 4.8411 63.876 4.8411C65.319 4.8411 67.003 5.02352 68.879 5.3935C69.342 5.4873 69.645 5.91468 69.572 6.37847ZM79.014 4.97138C78.128 5.17982 77.263 5.72177 76.69 6.14387C76.039 6.62328 75.106 7.63951 75.09 7.64993L74.934 7.82194L75.017 6.02911C75.028 5.79461 74.944 5.56012 74.777 5.38816C74.616 5.21619 74.387 5.12252 74.152 5.12252H72.823C72.396 5.12252 72.036 5.42471 71.969 5.85202L70.15 17.384C70.114 17.6342 70.186 17.8843 70.348 18.0772C70.51 18.27 70.749 18.3794 71.005 18.3794H73.058C73.485 18.3794 73.845 18.072 73.912 17.6499L74.871 11.5112C75.418 10.7399 76.127 10.0781 76.987 9.5361C77.628 9.1349 78.284 8.8744 78.941 8.7754C79.301 8.718 79.587 8.4421 79.655 8.0825L80.051 5.97186C80.108 5.68525 80.015 5.39343 79.801 5.1902C79.603 4.98697 79.301 4.90884 79.014 4.97138ZM37.815 10.7453C37.815 9.9845 37.68 9.3486 37.419 8.8588C37.148 8.3481 36.768 8.0876 36.278 8.0876C35.731 8.0876 35.095 8.4369 34.397 9.1351C33.704 9.8178 33.078 10.6253 32.531 11.5425L31.9477 15.2373L32.021 15.2581C32.62 15.4457 33.313 15.5393 34.084 15.5393C35.335 15.5393 36.283 15.034 36.898 14.0335C37.503 13.0538 37.815 11.949 37.815 10.7453ZM40.593 6.28966C41.307 7.25371 41.672 8.5358 41.672 10.0835C41.672 11.1048 41.531 12.1052 41.255 13.0536C40.978 14.002 40.541 14.9244 39.952 15.7999C39.368 16.6649 38.524 17.3736 37.44 17.8947C36.351 18.421 35.059 18.6922 33.605 18.6922C33.032 18.6922 32.307 18.6349 31.4526 18.5151L31.3641 18.5046L31.2077 20.0679C31.2025 20.0836 31.2025 20.099 31.2025 20.1199L30.7492 22.8661C30.6762 23.283 30.3218 23.5854 29.8997 23.5854H27.8622C27.6069 23.5854 27.3724 23.4759 27.2108 23.2831C27.0441 23.0903 26.9711 22.84 27.0128 22.5847L29.6705 5.85202C29.7382 5.42992 30.0978 5.12761 30.5251 5.12761H31.8435C32.078 5.12761 32.307 5.22141 32.469 5.38816C32.63 5.56012 32.719 5.78939 32.709 6.01868L32.656 7.4362L32.813 7.23824C32.828 7.22261 34.084 5.6957 36.007 5.09122C36.539 4.92447 37.049 4.8411 37.565 4.8411C38.873 4.84631 39.869 5.31519 40.593 6.28966ZM88.133 5.12252H86.528L86.883 2.8297C86.919 2.57957 86.846 2.32419 86.685 2.13659C86.523 1.94378 86.278 1.83431 86.028 1.83431H84.407C84.027 1.83431 83.688 2.08441 83.579 2.45439L82.792 5.12252H81.906C81.479 5.12252 81.125 5.42483 81.057 5.84693L80.854 7.0871C80.817 7.33723 80.88 7.59249 81.052 7.7853C81.213 7.97811 81.453 8.0876 81.708 8.0876H82.245L81.286 14.2261C81.218 14.6117 81.182 15.0131 81.182 15.4352C81.182 16.5243 81.468 17.3164 82.063 17.8583C82.646 18.3899 83.537 18.6659 84.72 18.6659C85.429 18.6659 86.429 18.369 86.549 18.3273C86.643 18.2908 86.82 18.2336 86.841 18.2232C86.878 18.2076 86.914 18.1918 86.945 18.1761C87.195 18.0406 87.357 17.7958 87.388 17.5197L87.539 16.2482C87.565 15.9824 87.472 15.7113 87.274 15.5289C87.216 15.4768 87.159 15.4301 87.091 15.3884C87.044 15.3676 87.003 15.3465 86.956 15.3309C86.924 15.3205 86.846 15.3048 86.539 15.31C86.466 15.31 86.388 15.3154 86.31 15.3154C86.169 15.3154 86.08 15.31 86.033 15.2996C85.913 15.2788 85.616 15.2163 85.465 15.0808C85.392 15.0183 85.168 14.8203 85.168 14.0907C85.168 14.0178 85.174 13.9084 85.194 13.7521L86.075 8.0929H87.894C88.305 8.0929 88.665 7.80107 88.743 7.39981L88.983 6.15939C89.035 5.90404 88.967 5.64368 88.8 5.44566C88.639 5.23722 88.394 5.12252 88.133 5.12252ZM55.47 5.47162C55.309 5.25275 55.048 5.12252 54.777 5.12252H52.63C52.25 5.12252 51.911 5.37795 51.802 5.73751C51.619 6.36284 51.276 7.08178 50.77 7.88428C50.067 9.0151 49.488 9.7135 48.998 10.0262L48.92 10.0626C48.748 10.1512 48.477 10.2813 47.529 10.4481L47.409 10.4689L48.894 1.18827C48.931 0.93813 48.863 0.68275 48.696 0.49515C48.535 0.30234 48.295 0.18753 48.045 0.18753H45.992C45.564 0.18753 45.205 0.49518 45.137 0.91728L42.526 17.3894C42.484 17.6395 42.557 17.8897 42.719 18.0825C42.881 18.2753 43.125 18.3899 43.376 18.3899H45.429C45.856 18.3899 46.216 18.0825 46.283 17.6604L46.956 13.3663H48.243L50.014 17.8428C50.145 18.1763 50.463 18.3899 50.817 18.3899H53.047C53.521 18.3899 53.912 18.0042 53.912 17.5247C53.912 17.4101 53.886 17.2904 53.839 17.181L51.812 11.9542L51.854 11.9178C52.693 11.1622 53.553 10.0886 54.413 8.739C54.97 7.86351 55.366 7.01929 55.601 6.24285C55.684 5.97187 55.632 5.69048 55.47 5.47162ZM25.7413 3.98641C26.5959 3.98641 27.2369 3.76754 27.6433 3.3246C28.055 2.87645 28.2583 2.3242 28.2583 1.62591C28.2583 1.08396 28.1071 0.67758 27.7997 0.40661C27.4974 0.13563 27.0285 0 26.4031 0C25.5485 0 24.9075 0.22409 24.5063 0.66182C24.0894 1.10997 23.8862 1.66756 23.8862 2.36584C23.8862 2.90779 24.0425 3.3143 24.3448 3.58006C24.6574 3.85625 25.1108 3.98641 25.7413 3.98641ZM26.4344 5.12252H24.4021C23.9748 5.12252 23.6204 5.42483 23.5475 5.84693L21.7288 17.384C21.6923 17.6342 21.7601 17.8896 21.9268 18.0772C22.0884 18.27 22.3281 18.3794 22.5782 18.3794H24.6105C25.0378 18.3794 25.3922 18.072 25.4651 17.6499L27.2838 6.11791C27.3203 5.86778 27.2525 5.6124 27.0858 5.4248C26.9242 5.2372 26.6897 5.12252 26.4344 5.12252ZM20.5563 0.49515C20.7179 0.68796 20.796 0.93813 20.7543 1.18827L18.7533 13.9554C18.7324 14.1742 18.7272 14.3095 18.7272 14.3981C18.7272 14.8254 18.8106 15.1225 18.9721 15.2737C19.1233 15.4144 19.4568 15.4925 19.5141 15.5029C19.6965 15.529 19.8684 15.6229 19.9987 15.7584C20.1707 15.9408 20.2593 16.1907 20.2384 16.4408L20.1238 17.5873C20.0977 17.8323 19.9935 18.0354 19.8424 18.1448C19.7017 18.2386 19.5297 18.3274 19.3109 18.4107C19.092 18.4941 18.4771 18.6713 18.0498 18.6713C16.9711 18.6713 16.1373 18.4211 15.5693 17.926C15.0065 17.4362 14.7199 16.7222 14.7199 15.7999C14.7199 15.5497 14.746 15.2738 14.7981 14.9767C14.8137 14.8517 16.9711 1.07883 16.9971 0.92771C17.0649 0.50562 17.4245 0.19796 17.8518 0.19796H19.9049C20.1551 0.19275 20.3896 0.30234 20.5563 0.49515Z" fill="#2A55E5"/>
</g>
<defs>
<linearGradient id="paint0_linear_2_20" x1="76.463" y1="24.9664" x2="81.609" y2="30.094" gradientUnits="userSpaceOnUse">
<stop offset="0.0411" stop-color="#FFF300"/>
<stop offset="0.2727" stop-color="#FFF300"/>
<stop offset="0.5022" stop-color="#FFE500"/>
<stop offset="0.8126" stop-color="#F2A930"/>
</linearGradient>
<linearGradient id="paint1_linear_2_20" x1="77.01" y1="34.3995" x2="82.165" y2="29.2631" gradientUnits="userSpaceOnUse">
<stop offset="0.1874" stop-color="#F2A930"/>
<stop offset="0.4978" stop-color="#FFE500"/>
<stop offset="0.7273" stop-color="#FFF300"/>
<stop offset="0.9589" stop-color="#FFF300"/>
</linearGradient>
<linearGradient id="paint2_linear_2_20" x1="72.703" y1="29.7914" x2="77.84" y2="34.9099" gradientUnits="userSpaceOnUse">
<stop offset="0.1874" stop-color="#F2A930"/>
<stop offset="0.4978" stop-color="#FFE500"/>
<stop offset="0.7273" stop-color="#FFF300"/>
<stop offset="0.9589" stop-color="#FFF300"/>
</linearGradient>
<linearGradient id="paint3_linear_2_20" x1="72.179" y1="30.6384" x2="77.322" y2="25.5143" gradientUnits="userSpaceOnUse">
<stop offset="0.0411" stop-color="#FFF300"/>
<stop offset="0.2727" stop-color="#FFF300"/>
<stop offset="0.5022" stop-color="#FFE500"/>
<stop offset="0.8126" stop-color="#F2A930"/>
</linearGradient>
<clipPath id="clip0_2_20">
<rect width="89.0001" height="36.0003" fill="white"/>
</clipPath>
</defs>
</svg>
